<?xml version="1.0" encoding="UTF-8"?>
<svg width="44px" height="39px" viewBox="0 0 44 39" version="1.1" xmlns="http://www.w3.org/2000/svg" xmlns:xlink="http://www.w3.org/1999/xlink">
    <title>Group 16</title>
    <g id="Page-1" stroke="none" stroke-width="1" fill="none" fill-rule="evenodd">
        <g id="mypage" transform="translate(-1066.000000, -424.000000)">
            <g id="Group-5" transform="translate(476.000000, 389.000000)">
                <g id="Group-4" transform="translate(402.000000, 15.000000)">
                    <g id="Group-16" transform="translate(189.000000, 21.000000)">
                        <g id="Group-7" transform="translate(6.675676, 4.274692)" stroke="#000000" stroke-width="1.8">
                            <line x1="35.0479189" y1="6.87403784" x2="19.2150541" y2="13.2705243" id="Stroke-1"></line>
                            <polyline id="Stroke-3" points="0.582605405 6.13903784 19.2147135 13.2699568 18.7084432 32.1177405"></polyline>
                            <polygon id="Stroke-5" points="18.7082162 32.1175135 34.556973 25.1795676 35.0019459 8.58616216 35.0484865 6.87437838 16.64 0.356432432 0.582378378 6.13881081 0.092 24.4247027"></polygon>
                        </g>
                        <line x1="16.2251676" y1="7.20901622" x2="34.2250054" y2="14.0652324" id="Stroke-8" stroke="#000000" stroke-width="1.8"></line>
                        <polygon id="Fill-9" fill="#FFFFFF" points="0.737610811 0.737043243 0.737610811 26.3116378 14.5329081 26.3116378 18.8044216 19.8901784 18.8044216 0.737043243"></polygon>
                        <polygon id="Stroke-10" stroke="#000000" stroke-width="1.8" points="14.5324541 26.3111838 0.738291892 26.3111838 0.738291892 0.737724324 18.8039676 0.737724324 18.8039676 19.8908595"></polygon>
                        <polyline id="Stroke-12" stroke="#000000" stroke-width="1.8" points="18.803627 19.8906324 13.2505459 20.2663622 14.5321135 26.3109568"></polyline>
                        <line x1="4.5" y1="5.62266486" x2="14.4977189" y2="5.62266486" id="Stroke-13" stroke="#000000" stroke-width="1.3"></line>
                        <line x1="4.5" y1="8.59240541" x2="9.82663784" y2="8.59240541" id="Stroke-14" stroke="#000000" stroke-width="1.3"></line>
                        <line x1="4.5" y1="11.5621459" x2="11.7382054" y2="11.5621459" id="Stroke-15" stroke="#000000" stroke-width="1.3"></line>
                    </g>
                </g>
            </g>
        </g>
    </g>
</svg>