<?xml version="1.0" encoding="UTF-8"?>
<svg width="26px" height="26px" viewBox="0 0 26 26" version="1.1" xmlns="http://www.w3.org/2000/svg" xmlns:xlink="http://www.w3.org/1999/xlink">
    <title>Group Copy</title>
    <g id="Page-1" stroke="none" stroke-width="1" fill="none" fill-rule="evenodd">
        <g id="display" transform="translate(-1655.000000, -460.000000)" fill="#000000">
            <g id="Group-3" transform="translate(1651.000000, 456.000000)">
                <g id="Group" transform="translate(4.250000, 4.250000)">
                    <g id="Group-4" transform="translate(0.566667, 0.708333)">
                        <path d="M3.5170875,-0.0006375 L3.5170875,2.0298 L-0.00031875,2.0298 L-0.00031875,4.101675 L3.5170875,4.101675 L3.5170875,6.1321125 L9.64824375,6.1321125 L9.64824375,4.101675 L24.5466188,4.101675 L24.5466188,2.0298 L9.64824375,2.0298 L9.64824375,-0.0006375 L3.5170875,-0.0006375 Z M5.1108375,4.5383625 L8.05449375,4.5383625 L8.05449375,1.59470625 L5.1108375,1.59470625 L5.1108375,4.5383625 Z" id="Fill-1"></path>
                        <path d="M3.5170875,17.9190094 L3.5170875,19.9478531 L-0.00031875,19.9478531 L-0.00031875,22.0213219 L3.5170875,22.0213219 L3.5170875,24.0517594 L9.64824375,24.0517594 L9.64824375,22.0213219 L24.5466188,22.0213219 L24.5466188,19.9478531 L9.64824375,19.9478531 L9.64824375,17.9190094 L3.5170875,17.9190094 Z M5.1108375,22.4580094 L8.05449375,22.4580094 L8.05449375,19.5127594 L5.1108375,19.5127594 L5.1108375,22.4580094 Z" id="Fill-2"></path>
                        <path d="M14.8959844,8.95990313 L14.8959844,10.9887469 L0.000796875,10.9887469 L0.000796875,13.0606219 L14.8959844,13.0606219 L14.8959844,15.0926531 L21.0287344,15.0926531 L21.0287344,13.0606219 L24.5461406,13.0606219 L24.5461406,10.9887469 L21.0287344,10.9887469 L21.0287344,8.95990313 L14.8959844,8.95990313 Z M16.4897344,13.4989031 L19.4349844,13.4989031 L19.4349844,10.5536531 L16.4897344,10.5536531 L16.4897344,13.4989031 Z" id="Fill-3"></path>
                    </g>
                </g>
            </g>
        </g>
    </g>
</svg>