<?xml version="1.0" encoding="UTF-8"?>
<svg width="18px" height="16px" viewBox="0 0 18 16" version="1.1" xmlns="http://www.w3.org/2000/svg" xmlns:xlink="http://www.w3.org/1999/xlink">
    <title>heart</title>
    <g id="Page-1" stroke="none" stroke-width="1" fill="none" fill-rule="evenodd">
        <g id="story" transform="translate(-1384.000000, -986.000000)" stroke="#AAAAAA" stroke-width="1.21091237">
            <g id="Group-4-Copy-4" transform="translate(1383.000000, 883.000000)">
                <g id="heart" transform="translate(0.000000, 101.000000)">
                    <path d="M9.99945013,5.47644482 C9.99945013,5.47644482 10.3307998,5.04804652 10.7667282,4.60450281 C11.4789649,3.8796875 12.4036616,3.1721812 13.7147495,3.18181818 C15.9846597,3.18181818 17.7261719,4.92039247 17.7272727,7.30903758 C17.7272727,8.91553123 16.8983482,10.1390628 15.9516349,11.3517761 C14.0901323,13.7350122 9.99945013,16.8181818 9.99945013,16.8181818 C9.99945013,16.8181818 5.90876797,13.7350122 4.04836624,11.3517761 C3.10165293,10.1390628 2.27162754,8.91553123 2.27272727,7.30903758 C2.2738292,4.92039247 4.01424052,3.18181818 6.28415081,3.18181818 C7.59633949,3.1721812 8.51993538,3.8796875 9.23217202,4.60450281 C9.66810047,5.04804652 9.99945013,5.47644482 9.99945013,5.47644482 Z" id="Stroke-1"></path>
                </g>
            </g>
        </g>
    </g>
</svg>