<?xml version="1.0" encoding="UTF-8"?>
<svg width="18px" height="16px" viewBox="0 0 18 16" version="1.1" xmlns="http://www.w3.org/2000/svg" xmlns:xlink="http://www.w3.org/1999/xlink">
    <title>heart copy</title>
    <g id="Page-1" stroke="none" stroke-width="1" fill="none" fill-rule="evenodd">
        <g id="display_detail" transform="translate(-1004.000000, -3793.000000)" stroke="#000000">
            <g id="Group-6-Copy-2" transform="translate(997.000000, 3658.000000)">
                <g id="Group" transform="translate(4.000000, 131.000000)">
                    <g id="Group-5" transform="translate(4.000000, 4.500000)">
                        <path d="M12.6786462,15 L9.21933589,15 C7.56694764,15 6.56556833,14.1200852 6.18850575,13.7888512 C6.18822478,13.7885533 6.18822478,13.7882555 6.18766284,13.7879576 C6.14439336,13.7498299 6.08988506,13.7289789 6.03312899,13.7289789 L5.32817369,13.7289789 C5.14694764,13.7289789 5,13.5734895 5,13.381064 L5,6.12876706 C5,5.93604368 5.14694764,5.78085221 5.32817369,5.78085221 L5.93900383,5.78085221 C6.15254151,5.76774583 7.29693487,5.16187356 7.9805364,3.92778861 C8.19885057,3.5342993 8.30842912,3.06336319 8.38429119,2.19149095 C8.39833972,1.86651227 8.38344828,1.58263997 8.37024266,1.33183149 C8.3449553,0.848682611 8.32500639,0.467406062 8.56664112,0.20587418 C8.56916986,0.202895457 8.5716986,0.200214606 8.57394636,0.1981295 C8.6385696,0.132597593 8.79001277,-0.0211045151 9.55369093,0.00242739688 C9.87371648,0.0125550552 10.2960153,0.0569380284 10.5221967,0.151065676 C11.3948914,0.516554993 11.6463602,1.1843847 11.7036782,1.68063995 C11.9107535,3.46638441 11.1296552,5.14697995 10.9647254,5.47732033 C10.9371903,5.5476182 10.9436526,5.61910755 10.9818646,5.68225648 C11.0197957,5.74480966 11.0849808,5.78085221 11.1605619,5.78085221 L14.0958621,5.78085221 C15.3416858,5.78085221 16,6.44361809 16,7.69825623 C16,8.98566032 15.234636,11.396043 14.7772158,12.8362556 C14.6561175,13.2172343 14.5605875,13.5180853 14.5237803,13.6631491 C14.5218135,13.6691065 14.5201277,13.6753619 14.5184419,13.6813193 C14.259106,14.4945107 13.5535888,15 12.6786462,15 Z" id="Stroke-1"></path>
                        <path d="M2.63720168,14 L0.362797874,14 C0.161968888,14 0,13.8435486 0,13.6499326 L0,6.35006744 C0,6.15615166 0.162279769,6 0.362797874,6 L2.63720168,6 C2.83771979,6 3,6.15615166 3,6.35006744 L3,13.6499326 C3.00031043,13.8435486 2.83803067,14 2.63720168,14 Z" id="Stroke-3"></path>
                    </g>
                </g>
            </g>
        </g>
    </g>
</svg>